PathFileType	4	(X/Y/Z)	/Users/mathieubourgeois/Desktop/Analyse/Traitement/Sujet_06/Data/Transformed_Sujet_06_velo_60.trc
DataRate	CameraRate	NumFrames	NumMarkers	Units	OrigDataRate	OrigDataStartFrame	OrigNumFrames
120.000000	120.000000	6	36	mm	120.000000	0	1868
Frame#	Time	RFHD			RANE			STRN			LANI			LKNE			T10			RHUM			RWRB			C7			LFWT			LTOE			RTOE			LWRA			LBWT			RBWT			RFWT			LKNI			RKNI			RKNE			LANE			RANI			LHEE			RHEE			LHUM			LRAD			RRAD			RWRA			LWRB			LFHD			LBHD			RBHD			RSHO			LSHO			CLAV			LCAR			RCAR			
		X1	Y1	Z1	X2	Y2	Z2	X3	Y3	Z3	X4	Y4	Z4	X5	Y5	Z5	X6	Y6	Z6	X7	Y7	Z7	X8	Y8	Z8	X9	Y9	Z9	X10	Y10	Z10	X11	Y11	Z11	X12	Y12	Z12	X13	Y13	Z13	X14	Y14	Z14	X15	Y15	Z15	X16	Y16	Z16	X17	Y17	Z17	X18	Y18	Z18	X19	Y19	Z19	X20	Y20	Z20	X21	Y21	Z21	X22	Y22	Z22	X23	Y23	Z23	X24	Y24	Z24	X25	Y25	Z25	X26	Y26	Z26	X27	Y27	Z27	X28	Y28	Z28	X29	Y29	Z29	X30	Y30	Z30	X31	Y31	Z31	X32	Y32	Z32	X33	Y33	Z33	X34	Y34	Z34	X35	Y35	Z35	X36	Y36	Z36	

1	0	262.1771850585938	1367.404174804688	107.3137130737304	-176.5437469482422	529.0990600585938	198.8564910888671	-44.7447624206543	1197.971313476562	40.8809394836425	58.82629013061524	311.0887756347656	-63.30503463745119	44.63542938232423	713.6714477539062	-129.8994445800782	-199.6485137939453	1347.538696289062	41.55847167968739	187.4323577880859	1129.349609375	216.49072265625	390.8592529296875	1009.606323242188	179.4431610107422	36.26620864868163	1456.007690429688	40.92713928222648	-181.7481231689453	1106.920532226562	-68.16054534912119	222.9051361083985	249.3099975585938	-120.3892211914062	-76.35267639160159	370.7015075683594	197.1252899169922	411.1799011230469	1027.625122070312	-144.2057495117188	-338.3190307617188	1136.71240234375	-19.21216392517101	-337.0946655273438	1137.184448242188	90.42495727539051	-180.3220672607422	1107.480102539062	142.9906463623046	67.76356506347656	663.822265625	-35.27256011962894	105.9858093261719	765.6503295898438	132.6022949218749	86.4811096191406	810.8119506835938	228.4736022949218	34.37221527099611	303.4468688964844	-142.5552368164063	-152.2044219970703	520.30859375	124.5151824951171	-17.00010108947752	287.6081237792969	-104.4409332275391	-228.5391540527344	550.4596557617188	152.5448150634765	179.4596405029297	1111.91162109375	-199.9802703857422	215.2297058105469	1159.78857421875	-223.9780883789063	229.2582092285156	1162.759643554688	256.5574340820312	423.3745727539062	1027.690307617188	231.3301239013672	429.809326171875	1027.505615234375	-203.874267578125	261.7669067382812	1358.545654296875	-36.16262435913091	194.4762725830078	1493.210327148438	-43.75825881958015	199.0029907226562	1520.563720703125	82.31479644775384	48.08208084106443	1407.580322265625	180.9064636230468	31.0070095062256	1397.421264648438	-117.8024978637696	42.14544296264648	1318.53857421875	36.37055206298821	487.3630065917969	1046.0078125	-128.3639373779297	486.7967529296875	1048.884887695312	158.3250885009766	
2	0.008333333333333333	261.9565124511719	1367.505737304688	107.7720489501953	-172.3938751220703	536.5767822265625	198.6237792968749	-44.80196762084962	1197.9892578125	40.94362640380852	54.2306137084961	304.5599365234375	-63.59617233276369	38.80113220214845	707.3706665039062	-130.5938568115235	-199.7982482910156	1347.401245117188	41.15157318115224	187.3273010253906	1129.37841796875	216.2507019042968	390.7940979003906	1009.707946777344	179.2847747802734	36.05356979370116	1456.03076171875	41.2869338989257	-181.59912109375	1106.469604492188	-68.80727386474619	217.9413757324219	241.1263732910156	-120.3314971923828	-71.22660064697268	378.9224548339844	197.0079345703125	411.1209411621094	1027.611572265625	-144.2530975341797	-338.08984375	1136.471435546875	-19.89965057373058	-337.0754089355469	1137.125122070312	89.89440917968739	-180.3180084228516	1107.592163085938	142.441436767578	61.71116638183594	657.4933471679688	-35.68726730346683	109.4551162719726	773.03662109375	133.0039672851562	89.95937347412107	818.0232543945312	228.5213165283203	29.74388885498049	296.81103515625	-142.8213653564453	-148.1609497070313	527.83251953125	124.3002624511718	-21.94919586181639	281.9031372070312	-104.9750671386719	-224.6457977294922	557.642578125	152.3165435791015	179.3706665039063	1112.055908203125	-199.711654663086	215.156234741211	1159.905151367188	-223.6761474609375	229.0833435058593	1162.732055664062	256.3152465820312	423.2600402832031	1027.7958984375	231.2132263183594	429.718017578125	1027.502075195312	-203.9405517578125	261.7362670898438	1358.786743164062	-35.66946411132817	194.3802490234375	1493.425903320312	-43.19197463989265	198.7055511474609	1520.650390625	82.8784103393554	47.71760940551756	1407.424682617188	181.218521118164	30.99230003356935	1397.67138671875	-117.5188293457032	42.0109519958496	1318.596069335938	36.54257583618157	487.2928771972656	1046.031372070312	-128.4823303222656	486.7577819824219	1048.930419921875	158.2197875976562	
3	0.01666666666666667	261.7118835449219	1367.607177734375	108.2796096801757	-168.2326354980469	543.6707153320312	198.2995147705078	-44.93726348876954	1198.013427734375	41.00548171997062	49.47776031494141	298.5088500976562	-63.86143493652345	33.03892898559572	701.4849853515625	-131.3016052246094	-199.945556640625	1347.28564453125	40.84993362426747	187.2108154296875	1129.4130859375	215.9405059814453	390.7210998535156	1009.853637695312	179.1341400146484	35.80936050415038	1456.060913085938	41.64002227783195	-181.51123046875	1106.09521484375	-69.39710235595713	212.6846160888672	233.1657409667969	-120.2988891601562	-65.70930480957034	386.9084167480469	196.966796875	411.0555419921875	1027.57421875	-144.3098449707031	-337.94921875	1136.233276367188	-20.56897163391125	-337.4216613769531	1137.48681640625	88.71255493164051	-180.2925415039063	1107.684448242188	141.8560791015624	55.85138320922852	651.6204223632812	-36.20424652099613	113.1818923950195	780.3527221679688	132.9012908935546	93.21434783935544	825.1896362304688	228.448745727539	24.84460830688478	290.642578125	-143.0314636230469	-144.148910522461	534.9494018554688	123.86328125	-26.93387794494627	276.0723876953125	-105.168830871582	-220.6412048339844	564.40087890625	152.0028839111328	179.261474609375	1112.180419921875	-199.4092559814453	215.3364715576172	1160.025634765625	-223.0810241699219	228.9100646972656	1162.730590820312	256.0892639160156	423.1557922363281	1027.915771484375	231.0941772460938	429.6033325195312	1027.477783203125	-204.0074005126953	261.6941833496094	1359.058715820312	-35.21202087402349	194.2221221923828	1493.63134765625	-42.67834091186531	198.3685760498047	1520.751708984375	83.45003509521477	47.32973861694334	1407.272705078125	181.5630798339843	30.93924522399904	1397.867797851562	-117.2964630126954	41.8548469543457	1318.635864257812	36.71020889282219	487.2057189941406	1046.080200195312	-128.5914764404297	486.7410888671875	1048.968017578125	158.1217041015625	
4	0.025	261.2673034667969	1367.329467773438	108.9451370239257	-163.5567016601563	550.2216186523438	198.0460815429687	-45.09550857543946	1198.064331054688	41.04436492919914	46.17616653442384	295.2808837890625	-64.62493896484376	27.30330848693849	695.9877319335938	-132.017807006836	-200.1008605957031	1347.024047851562	40.47606658935536	187.12158203125	1129.444213867188	215.6137084960937	390.1969909667969	1009.615051269531	179.2371368408203	35.20153427124023	1455.955688476562	42.05628585815421	-181.5213623046875	1105.772216796875	-69.9697265625001	207.033447265625	225.3494262695312	-120.2996597290039	-59.70899963378908	394.8798828125	197.0089416503906	410.68017578125	1025.7041015625	-143.6134643554688	-337.8742980957031	1135.803344726562	-21.16097450256359	-337.4620666503906	1137.705444335938	87.96764373779286	-180.3200073242188	1107.805786132812	141.2839050292968	49.92453765869141	646.034912109375	-36.73474121093754	114.9352416992187	786.1241455078125	132.7684020996093	96.29514312744138	832.1090087890625	228.3881683349609	19.7063789367676	284.68701171875	-143.3184051513672	-140.721176147461	541.72705078125	123.1326217651367	-32.15704345703124	270.7793273925781	-105.33544921875	-216.0762023925782	570.5903930664062	150.3836822509765	179.1714324951172	1112.28955078125	-199.091064453125	215.0306091308594	1160.089477539062	-223.0131530761719	228.765869140625	1162.772705078125	255.8600921630859	422.9664611816406	1029.012329101562	231.1703033447266	430.2279663085938	1026.989135742188	-204.13232421875	261.6477355957031	1359.343994140625	-34.70630645751958	194.0738220214844	1493.879272460938	-42.17125701904304	197.0398712158203	1520.806640625	84.21783447265618	46.87601470947263	1407.134399414062	181.8853302001952	30.87150382995607	1398.053344726562	-117.0983276367188	41.64897537231445	1318.689697265625	36.90211105346673	486.6240539550781	1047.035034179688	-128.1472320556641	486.8636169433594	1048.976440429688	158.1686248779297	
5	0.03333333333333333	261.0299682617188	1367.258544921875	109.4643936157226	-159.1228179931641	556.4932861328125	197.6464538574218	-44.48435592651368	1198.186889648438	41.02836990356437	40.83161544799805	290.2521667480469	-65.01937866210939	21.85565185546877	691.225830078125	-132.6185607910157	-199.9005584716797	1346.908081054688	40.43235778808583	187.2752685546875	1129.524658203125	215.3584594726562	389.3852233886719	1009.623840332031	179.2706298828125	35.30658721923827	1456.045654296875	42.40613555908195	-181.7064056396484	1105.758544921875	-70.3469238281251	201.4156188964844	217.7092437744141	-120.289680480957	-53.24535369873049	402.6036682128906	197.0326538085937	410.6094055175781	1025.6328125	-143.6201477050781	-337.6226196289062	1135.67578125	-21.20349311828625	-337.4996032714844	1137.838012695312	87.49771881103504	-180.3354187011719	1107.937744140625	140.7139892578124	44.21299743652344	640.9406127929688	-37.34390258789066	117.2013397216797	792.326904296875	132.6195373535156	99.15651702880857	839.00537109375	228.1974029541015	14.6234350204468	279.7093505859375	-143.134262084961	-132.8067779541016	546.70263671875	123.2209091186523	-37.989933013916	266.9035034179688	-107.3536071777344	-211.5828094482422	576.1878662109375	149.9964141845703	179.3610992431641	1112.482543945312	-198.8159332275391	214.6603546142578	1160.622802734375	-223.1701965332032	228.58642578125	1162.853393554688	255.8063354492187	422.809326171875	1029.235961914062	231.1555633544922	430.0956115722656	1027.2177734375	-204.1686401367188	261.5932006835938	1359.948974609375	-34.10222625732427	193.8393859863281	1494.34423828125	-41.62400054931648	197.0310363769531	1520.554077148438	84.9296798706054	46.40682220458982	1407.067993164062	182.3543243408202	30.7398090362549	1398.492431640625	-116.7783813476563	42.11048507690429	1318.054077148438	36.89437103271477	486.8726501464844	1046.718505859375	-128.5418701171875	487.318359375	1049.06103515625	158.2203674316406	
6	0.04166666666666666	260.5776672363281	1367.977172851562	109.953010559082	-154.8522338867188	562.8334350585938	197.0530700683593	-45.48910903930665	1198.285278320312	41.06096649169914	35.52540969848634	285.3487548828125	-65.28679656982423	16.23974418640138	686.1444702148438	-133.5783233642578	-200.4823455810547	1346.799560546875	39.89498901367177	186.9504852294922	1129.594360351562	215.1299438476562	390.063232421875	1009.672668457031	178.8430633544922	34.26327896118163	1456.720092773438	43.09226226806632	-181.6307983398438	1105.189331054688	-71.08759307861338	194.4691619873047	211.0165405273438	-120.1743545532226	-45.92998886108401	410.9428405761719	196.9506072998047	410.6205139160156	1026.13427734375	-143.7625427246094	-337.7850036621094	1135.435791015625	-22.04865074157726	-337.7354736328125	1137.637573242188	86.97991180419911	-180.3536224365235	1108.5380859375	140.2512054443359	37.42910766601563	637.2089233398438	-38.01760864257815	119.8630828857422	798.8870239257812	132.4176788330078	101.5427932739258	846.3601684570312	227.6682891845703	8.469700813293475	274.4143676757812	-143.8139801025391	-129.9797973632813	553.752197265625	122.8423538208007	-43.76527786254881	262.1524047851562	-106.6134948730469	-207.9206848144532	581.5545654296875	149.6862030029296	178.9770965576172	1112.477416992188	-198.5924530029297	214.9159088134766	1160.27685546875	-222.1006774902344	228.446548461914	1163.32080078125	255.3449554443359	422.7916259765625	1029.287475585938	230.9752807617188	430.0227355957031	1026.926879882812	-204.2370758056641	261.5362854003906	1359.845336914062	-33.78469467163091	193.7690277099609	1494.26708984375	-41.31903457641609	196.418701171875	1520.808715820312	85.11089324951165	46.14764785766599	1407.9853515625	182.5030364990234	30.74706840515138	1398.41064453125	-116.7225189208985	40.80498886108398	1319.703125	37.6900444030761	486.4844970703125	1047.188232421875	-128.3852691650391	486.5594787597656	1049.648193359375	158.1814117431641	
